<svg class="svg-icon" style="width: 1em; height: 1em;vertical-align: middle;fill: currentColor;overflow: hidden;" viewBox="0 0 1024 1024" version="1.1" xmlns="http://www.w3.org/2000/svg"><path d="M817.485714 151.542857c-107.657143-107.657143-282.971429-107.657143-390.514285 0l-298.285715 298.057143c-1.942857 1.942857-2.971429 4.571429-2.971428 7.314286s1.028571 5.371429 2.971428 7.314285l42.171429 42.171429a10.285714 10.285714 0 0 0 14.514286 0l298.285714-298.057143c37.028571-37.028571 86.285714-57.371429 138.628571-57.371428s101.6 20.342857 138.514286 57.371428c37.028571 37.028571 57.371429 86.285714 57.371429 138.514286 0 52.342857-20.342857 101.485714-57.371429 138.514286l-304 303.885714-49.257143 49.257143c-46.057143 46.057143-120.914286 46.057143-166.971428 0-22.285714-22.285714-34.514286-51.885714-34.514286-83.428572s12.228571-61.142857 34.514286-83.428571l301.6-301.485714c7.657143-7.542857 17.714286-11.771429 28.457142-11.771429h0.114286c10.742857 0 20.685714 4.228571 28.228572 11.771429 7.657143 7.657143 11.771429 17.714286 11.771428 28.457142 0 10.628571-4.228571 20.685714-11.771428 28.228572L352.457143 673.142857c-1.942857 1.942857-2.971429 4.571429-2.971429 7.314286s1.028571 5.371429 2.971429 7.314286l42.171428 42.171428a10.285714 10.285714 0 0 0 14.514286 0l246.4-246.4c22.742857-22.742857 35.2-52.914286 35.2-85.028571s-12.571429-62.4-35.2-85.028572c-46.971429-46.971429-123.314286-46.857143-170.285714 0L456 342.857143 183.771429 614.971429A196.822857 196.822857 0 0 0 125.714286 755.2c0 52.914286 20.685714 102.628571 58.057143 140 38.742857 38.628571 89.485714 57.942857 140.228571 57.942857 50.742857 0 101.485714-19.314286 140.114286-57.942857l353.371428-353.142857C869.485714 489.942857 898.285714 420.571429 898.285714 346.857143c0.114286-73.828571-28.685714-143.2-80.8-195.314286z"  /></svg>